<?xml version="1.0" encoding="utf-8"?>
<!-- Generator: Adobe Illustrator 26.2.1, SVG Export Plug-In . SVG Version: 6.00 Build 0)  -->
<svg version="1.1" id="a" xmlns="http://www.w3.org/2000/svg" xmlns:xlink="http://www.w3.org/1999/xlink" x="0px" y="0px"
	 viewBox="0 0 715.2 160.9" style="enable-background:new 0 0 715.2 160.9;" xml:space="preserve">
<style type="text/css">
	.st0{fill:#FFFFFF;}
	.st1{fill:#F9F9F9;}
	.st2{fill:#BF2133;}
	.st3{fill:#F9F7F7;}
</style>
<path class="st0" d="M705.8,13v69.6c-0.1,0-0.2,0-0.4,0c-10.3,0-18.7,8.4-18.7,18.7s8.6,18.7,18.7,18.7c0.1,0,0.2,0,0.4,0v15.4H0V13
	C0,5.8,5.8,0,13,0h679.9C700,0,705.8,5.8,705.8,13L705.8,13z"/>
<path class="st1" d="M705.8,147.9c0,7.2-5.8,13-13,13H13c-7.2,0-13-5.8-13-13"/>
<g>
	<path class="st2" d="M88.9,55.8c-5.3-6.5-11.5-9.2-19.1-9.2c-17,0-25.5,12.6-25.5,28.1s10.2,28.1,25.5,28.1
		c8.2,0,14.5-2.9,19.2-9.4l9.4,8.9c-7.3,8.4-17.6,12.1-28.6,12.1c-23.4,0-39.1-16.5-39.1-39.7S46.6,35,69.9,35
		C81,35,91.4,38.7,99,47L88.9,55.8L88.9,55.8z"/>
	<path class="st2" d="M149,35c23.2,0,40.4,16.1,40.4,39.7s-17.1,39.7-40.4,39.7s-40.4-16.1-40.4-39.7S125.8,35,149,35z M149,102.8
		c16.3,0,26.8-12.3,26.8-28.1s-10.5-28-26.8-28S122.2,59,122.2,74.8S132.7,102.8,149,102.8z"/>
	<path class="st2" d="M204.6,54.9C204.6,48,204,42,204,37h11.9c0,4,0.3,8.2,0.3,12.4h0.3C220,42,229.3,35,241.8,35
		c19.9,0,28.7,12.6,28.7,30.8v46.7h-12.6V67.2c0-12.6-5.5-20.5-17.3-20.5c-16.3,0-23.4,11.8-23.4,29.1v36.8h-12.6L204.6,54.9
		L204.6,54.9z"/>
	<path class="st2" d="M290.1,54.9c0-6.9-0.6-12.9-0.6-17.9h12c0,4,0.3,8.2,0.3,12.4h0.3C305.5,42,314.8,35,327.3,35
		c19.9,0,28.7,12.6,28.7,30.8v46.7h-12.6V67.2c0-12.6-5.5-20.5-17.3-20.5c-16.3,0-23.4,11.8-23.4,29.1v36.8h-12.6V54.9L290.1,54.9z"
		/>
	<path class="st2" d="M442.3,98.8c-8.9,11.5-19.5,15.7-33.6,15.7c-23.7,0-38.3-17.8-38.3-39.7c0-23.4,16.5-39.7,38.8-39.7
		S445,49.6,445,74.6v4h-61c1,13.1,11,24.2,24.7,24.2c10.8,0,18.1-3.9,24.1-11.5L442.3,98.8L442.3,98.8z M431.5,68
		c-0.5-12.8-8.9-21.3-22.8-21.3S385.6,55.2,384,68H431.5L431.5,68z"/>
	<path class="st2" d="M516.6,55.8c-5.3-6.5-11.5-9.2-19-9.2c-17,0-25.5,12.6-25.5,28.1s10.2,28.1,25.5,28.1c8.2,0,14.5-2.9,19.2-9.4
		l9.4,8.9c-7.3,8.4-17.6,12.1-28.6,12.1c-23.4,0-39.1-16.5-39.1-39.7S474.3,35,497.6,35c11.1,0,21.5,3.7,29.1,12L516.6,55.8
		L516.6,55.8z"/>
	<path class="st2" d="M591.4,47.6h-22.3v37.8c0,9.7,0.2,17.4,11.3,17.4c3.7,0,7.8-0.8,11.1-2.6l0.5,11.5c-4.4,1.9-10,2.7-14.7,2.7
		c-17.9,0-20.8-9.7-20.8-25.3V47.6H540V37h16.5V15.5h12.6V37h22.3L591.4,47.6L591.4,47.6z"/>
	<path class="st2" d="M607.7,46.7c7.8-7.9,19-11.6,30-11.6c22.3,0,31.7,10.6,31.7,32v32.4c0,4.4,0.5,9.2,1.1,13.1h-12.1
		c-0.8-3.4-0.8-8.1-0.8-11.3h-0.3c-5,7.8-13.4,13.2-24.9,13.2c-15.3,0-28.1-7.8-28.1-22.4c0-25,29.1-26.5,47.6-26.5h4.8v-2.3
		c0-11-6.9-16.6-18.7-16.6c-8.1,0-16.5,2.7-22.4,8.2L607.7,46.7L607.7,46.7z M644.1,76.2c-16,0-26.3,4.4-26.3,14.5
		c0,9.5,7.1,13.1,16.6,13.1c14.5,0,22-10.5,22.3-22.8v-4.8H644.1z"/>
	<path class="st3" d="M715.2,101.2c0,5.2-4.5,9.5-9.3,9.7c-0.1,0-0.2,0-0.4,0c-5,0-9.7-4.4-9.7-9.7s4.4-9.7,9.7-9.7
		c0.1,0,0.2,0,0.4,0C711,91.8,715.2,96,715.2,101.2z"/>
</g>
</svg>
